# xmcd
#
# Track frame offsets: 
#        150
#        14232
#        28718
#        47453
#        64813
#        84718
#        97821
#        107172
#        124708
#        141041
#        155068
#        171678
#        189602
#
# Disc length: 2711 seconds
#
# Revision: 0
# Processed by: cddbd v1.5.2PL0 Copyright (c) Steve Scherf et al.
# Submitted via: ExactAudioCopy v0.99pb5
#
DISCID=b70a950d
DTITLE=Waylon Jennings - Right For The Time
DYEAR=1996
DGENRE=Country
TTITLE0=WBPT
TTITLE1=Cactus Texas
TTITLE2=The most sensible thing
TTITLE3=The boxer
TTITLE4=Hittin' the bottle again
TTITLE5=Wastin' time
TTITLE6=Kissing you goodbye
TTITLE7=Carnival song
TTITLE8=Out of jail
TTITLE9=Lines
TTITLE10=Deep in the west
TTITLE11=Right for the time
TTITLE12=Living legends Pt. II
EXTD=
EXTT0=
EXTT1=
EXTT2=
EXTT3=
EXTT4=
EXTT5=
EXTT6=
EXTT7=
EXTT8=
EXTT9=
EXTT10=
EXTT11=
EXTT12=
PLAYORDER=
